<svg xmlns="http://www.w3.org/2000/svg" version="1.1" width="100%" height="100%" viewBox="0 0 40 20" preserveAspectRatio="xMinYMin meet">
<!-- Web Experience Toolkit (WET) / Boîte à outils de l'expérience Web (BOEW)
wet-boew.github.io/wet-boew/License-en.html / wet-boew.github.io/wet-boew/Licence-fr.html  -->
  <g id="sig" transform="translate(-2,-2)">
    <path fill="#F00" class="fip_flag" d="M 41.5,21.8 H 31.6 V 2.2 h 9.9 v 19.6 l 0,0 z M 21.8,3.7 c 0,0 -1.2,2.4 -1.4,2.6 -0.2,0.3 -0.3,0.3 -0.6,0.2 -0.3,-0.2 -1.3,-0.7 -1.3,-0.7 0,0 0.9,3.9 0.9,4.2 0.1,0.3 -0.2,0.6 -0.6,0.3 -0.1,-0.1 -1.8,-2 -1.8,-2 0,0 -0.4,0.9 -0.5,1.1 -0.1,0.2 -0.2,0.3 -0.4,0.2 -0.3,-0.1 -1.9,-0.4 -1.9,-0.4 0,0 0.6,1.9 0.7,2.2 0.1,0.2 0.2,0.4 -0.2,0.6 l -0.6,0.2 c 0,0 3.3,2.9 3.4,3 0.2,0.2 0.3,0.2 0.2,0.7 -0.2,0.5 -0.3,1.1 -0.3,1.1 0,0 3.1,-0.7 3.4,-0.7 0.3,0 0.6,0.1 0.6,0.4 0,0.3 -0.2,3.7 -0.2,3.7 h 1 c 0,0 -0.2,-3.3 -0.2,-3.7 0,-0.3 0.3,-0.4 0.6,-0.4 0.3,0.1 3.4,0.7 3.4,0.7 0,0 -0.2,-0.7 -0.3,-1.1 -0.2,-0.5 0,-0.6 0.2,-0.7 0.1,-0.1 3.4,-3 3.4,-3 L 28.7,12 c -0.3,-0.2 -0.2,-0.4 -0.2,-0.6 0.1,-0.2 0.7,-2.2 0.7,-2.2 0,0 -1.6,0.3 -1.9,0.4 C 27.1,9.7 27,9.5 26.9,9.4 26.8,9.2 26.4,8.3 26.4,8.3 c 0,0 -1.7,2 -1.8,2 -0.3,0.2 -0.7,0 -0.6,-0.3 0,-0.3 0.9,-4.2 0.9,-4.2 0,0 -1,0.6 -1.3,0.7 C 23.4,6.7 23.2,6.7 23,6.3 23,6 21.8,3.7 21.8,3.7 l 0,0 z M 11.9,21.8 V 2.2 H 2 v 19.6 h 9.9 l 0,0 z"/>
  </g>
</svg>